<?xml version="1.0" encoding="utf-8" ?>
<svg xmlns="http://www.w3.org/2000/svg" xmlns:xlink="http://www.w3.org/1999/xlink" width="1024" height="1024">
	<path fill="#D400F1" transform="scale(2 2)" d="M203.561 135.737C195.13 136.364 186.406 132.591 180.538 126.644C159.749 105.573 170.464 57.1395 199.232 57.4789C206.102 55.9442 213.086 58.8963 218.494 62.9664C243.208 81.5672 236.578 131.337 203.561 135.737ZM201.723 64.2481C176.307 63.8273 168.843 104.065 185.84 121.527C189.676 125.468 195.947 129.421 201.723 128.241C226.231 128.809 233.995 88.9102 216.84 71.1033C213.536 67.6736 206.883 62.598 201.723 64.2481Z"/>
	<path fill="#D400F1" transform="scale(2 2)" d="M128.247 135.737C117.504 136.05 103.965 130.716 101.886 118.971C101.397 116.21 104.556 113.774 106.937 115.62C108.462 116.803 109.582 119.502 110.687 121.126C120.566 135.656 143.641 128.228 141.901 114.382C139.729 97.0965 105.581 102.311 103.122 81.0747C101.684 68.6561 110.269 58.8105 122.552 57.4789C134.408 55.7172 145.643 62.6128 148.765 74.3436C145.665 83.2822 141.645 73.7252 140.395 71.6575C132.342 58.3332 106.699 64.3487 109.918 80.2246C113.161 96.2195 145.059 91.7646 148.665 111.415C151.151 124.959 140.602 133.723 128.247 135.737Z"/>
	<path fill="#D400F1" transform="scale(2 2)" d="M261.098 72.588L261.107 112.771C261.109 118.428 261.562 126.543 260.994 131.994C260.67 135.1 257.201 137.007 254.91 134.206C252.952 131.812 254.013 120.23 254.011 116.914L253.97 69.7439C253.952 65.968 252.707 60.0066 256.216 57.4789C260.918 57.0248 262.752 62.7304 264.982 66.0644C275.763 82.1865 286.418 98.4466 297.665 114.243C307.051 100.217 316.114 85.9614 325.609 72.0069C326.087 71.3045 337.575 50.4578 339.736 59.5301C340.776 63.8985 340.23 69.4234 340.229 73.9186L340.218 120.41C340.216 123.134 341.203 132.162 339.54 134.25C337.411 136.923 333.549 135.152 333.244 132.068C332.741 126.968 333.173 121.526 333.178 116.383L333.168 84.0195L333.168 74.3436C329.571 78.9047 326.575 83.5878 323.321 88.4111L309.075 109.755C306.786 113.222 302.538 120.625 299.836 123.156C295.671 127.058 291.94 118.916 290.083 116.109L267.903 82.7146C265.653 79.3372 263.847 75.6087 261.098 72.588Z"/>
	<path fill="#D400F1" transform="scale(2 2)" d="M371.948 128.241L394.133 128.256C397.29 128.236 406.968 126.674 408.921 129.999C413.567 137.907 387.495 134.984 383.985 134.982C377.892 134.978 368.783 136.245 363.048 134.323C360.209 130.526 361.6 89.4682 361.602 82.7625L361.558 68.6585C361.474 54.6731 362.146 57.4642 375.283 57.4638L398.614 57.4789L399.585 57.4241C402.797 57.2453 414.135 58.0233 407.808 63.3854C405.674 65.1946 395.261 64.2634 392.429 64.2633L368.608 64.2481L368.608 93.2614L393.592 93.2392C395.091 93.2377 414.968 91.7561 408.527 98.9701C404.073 101.136 397.265 100.013 392.479 100.013L368.608 99.9973L368.608 128.241L371.948 128.241Z"/>
	<path fill="#D400F1" transform="scale(2 2)" d="M145.625 166.217L102.733 166.188C99.085 166.169 83.9683 168.247 82.8151 163.502C81.119 156.522 97.1267 159.164 101.384 159.164L367.674 159.161L419.911 159.148C422.706 159.125 429.722 157.854 430.287 161.877C431.189 168.313 419.748 166.235 415.751 166.227L145.625 166.217Z"/>
	<path fill="#2400EE" transform="scale(2 2)" d="M238.071 254.778C238.264 249.405 238.078 243.991 238.074 238.612L238.064 207.294C238.064 201.733 235.827 191.956 240.788 189.596C248.142 188.565 245.235 203.348 245.226 209.086L245.252 253.086C245.254 255.985 246.406 262.958 243.404 264.724C237.107 268.427 225.435 246.371 224.039 257.292C223.648 260.35 229.794 265.427 231.688 267.408L243.854 279.973C253.175 289.538 253.378 295.576 263.959 284.188C271.829 275.718 280.115 267.473 288.531 259.558C284.922 246.04 274.905 263.497 269.648 265.974C265.914 265.885 267.284 252.339 267.292 249.893L267.289 205.33C267.284 200.073 264.861 188.678 272.338 189.596C275.622 191.789 274.534 196.233 274.514 199.682L274.491 252.17C290.376 239.524 298.894 256.046 293.321 264.339C290.895 267.95 286.903 271.098 283.82 274.162L265.397 292.584C252.863 305.181 243.652 289.87 235.042 280.791C229.939 275.411 216.447 264.736 216.919 257.284C217.665 245.482 229.989 244.721 238.071 254.778Z"/>
	<path fill="#D400F1" transform="scale(2 2)" d="M147.406 210.393C142.891 210.695 138.156 210.408 133.624 210.405L105.844 210.379C101.465 210.368 89.2955 210.933 85.9434 210.222C82.185 209.424 81.1357 205.165 84.7278 203.505C88.3004 203.337 91.8986 203.495 95.4756 203.497L134.895 203.496C137.783 203.497 146.647 202.362 148.644 204.886C150.046 206.658 149.149 209.248 147.406 210.393Z"/>
	<path fill="#2400EE" transform="scale(2 2)" d="M334.875 222.294L317.769 222.314C315.739 222.315 299.411 223.177 306.046 216.421C307.93 214.503 316.428 215.381 319.047 215.379L339.065 215.381L356.161 215.359C358.977 215.351 368.398 214.129 369.037 218.217C370.005 224.404 359.312 222.332 355.815 222.315L334.875 222.294Z"/>
	<path fill="#2400EE" transform="scale(2 2)" d="M406.811 450.566L118.375 450.583C101.751 450.587 84.3217 448.426 81.4214 427.367C80.8094 422.923 81.1493 418.024 81.1487 413.54L81.1394 359.884C81.1321 342.977 81.9309 326.293 104.149 323.248C111.16 323.047 118.233 323.24 125.25 323.244L392.788 323.237C408.601 323.205 426.398 323.396 429.806 344.094C430.737 349.749 430.259 355.862 430.262 361.601L430.263 414.926C430.256 431.941 428.056 447.294 406.811 450.566ZM313.977 330.206L112.434 330.191C90.59 330.118 88.1842 338.998 88.2026 356.974L88.2127 410.186C88.2067 422.519 86.7121 440.079 103.444 443.081C107.321 443.777 111.496 443.492 115.427 443.492L197.375 443.483L386.533 443.479C399.979 443.485 419.272 446.841 422.907 428.599C423.579 425.226 423.276 421.531 423.266 418.096L423.263 349.6C423.168 336.248 414.204 329.881 401.494 330.101C372.349 330.607 343.131 330.208 313.977 330.206Z"/>
	<path fill="#2400EE" transform="scale(2 2)" d="M196.643 406.388C186.284 407.751 176.783 400.453 175.43 390.092C174.077 379.732 181.384 370.238 191.746 368.895C202.094 367.554 211.572 374.849 212.923 385.196C214.274 395.542 206.988 405.027 196.643 406.388ZM192.72 375.958C186.235 376.798 181.67 382.75 182.539 389.23C183.409 395.711 189.383 400.248 195.859 399.348C202.293 398.454 206.794 392.529 205.93 386.091C205.066 379.653 199.161 375.124 192.72 375.958Z"/>
	<path fill="#2400EE" transform="scale(2 2)" d="M144.501 397.989C138.76 412.529 134.946 404.006 135.431 402.225C136.681 397.633 140.794 389.154 142.808 384.484C144.807 379.849 146.274 372.441 150.765 369.65C152.504 369.204 154.33 369.073 155.527 370.662C157.695 373.539 167.573 396.66 169.064 400.973C170.085 403.922 168.998 407.043 165.141 405.92C162.121 405.042 161.315 400.401 159.876 397.989L154.813 397.989L144.501 397.989ZM152.801 379.614C150.316 383.21 148.98 387.242 147.406 391.286C149.213 391.347 150.995 391.388 152.801 391.286C154.305 391.294 155.839 391.367 157.339 391.286C156.774 389.802 153.226 380.144 152.801 379.614Z"/>
	<path fill="#2400EE" transform="scale(2 2)" d="M265.402 394.072C268.657 387.844 271.248 371.056 277.177 369.65C280.854 369.541 286.774 389.895 288.531 394.072C289.477 391.575 295.585 361.505 301.844 370.943C303.837 373.948 296.93 390.663 295.737 394.088C291.04 407.567 288.744 412.127 282.564 396.51L277.177 382.741C275.586 386.339 269.433 404.408 267.025 405.612C261.075 408.589 257.775 391.827 256.391 387.908C254.869 383.595 248.183 371.939 253.824 369.608C259.081 367.436 264.47 390.297 265.402 394.072Z"/>
	<path fill="#2400EE" transform="scale(2 2)" d="M228.513 376.344C225.845 376.227 219.774 377.613 218.467 374.291C217.426 371.646 218.904 370.48 221.185 369.65C225.617 369.419 246.459 367.955 246.643 372.618C246.858 378.037 238.641 376.401 235.347 376.344L235.347 396.978C235.353 399.184 235.924 403.329 234.381 405.079C232.548 407.156 229.39 405.629 228.964 403.189C227.88 396.981 228.501 382.928 228.513 376.344Z"/>
	<path fill="#2400EE" transform="scale(2 2)" d="M351.526 394.73C351.71 397.274 352.534 403.89 350.219 405.606C340.942 412.483 344.308 373.574 344.836 371.843C345.201 370.646 346.067 370.166 347.13 369.65C350.643 369.342 358.288 369.295 361.763 369.946C374.568 372.343 375.931 386.886 365.607 393.169C367.937 395.676 376.448 404.426 369.021 406.115C367.646 406.427 366.749 405.878 365.607 405.175C363.566 401.489 361.001 398.025 358.384 394.73C356.104 394.667 353.807 394.728 351.526 394.73ZM351.526 376.344C351.453 380.139 351.508 383.94 351.526 387.735C355.075 387.785 360.451 388.597 363.38 386.239C364.369 384.754 365.114 383.37 365.607 381.637C363.195 374.89 357.479 376.287 351.526 376.344Z"/>
	<path fill="#2400EE" transform="scale(2 2)" d="M317.963 399.096C318.538 399.122 342.764 397.206 335.175 404.857C332.784 407.267 325.087 405.95 322.04 405.916C317.806 405.869 311.175 407.724 310.663 401.837C310.139 395.821 309.32 372.018 312.657 369.65C319.691 369.654 326.75 369.486 333.781 369.65C344.307 377.948 320.559 376.358 317.963 376.344L317.963 384.254C320.574 384.238 339.008 382.24 334.011 389.713C331.372 393.662 321.937 389.743 317.963 391.286C317.868 393.903 317.874 396.48 317.963 399.096Z"/>
</svg>
